<?xml version="1.0" standalone="no"?>
<!DOCTYPE svg PUBLIC "-//W3C//DTD SVG 20010904//EN"
 "http://www.w3.org/TR/2001/REC-SVG-20010904/DTD/svg10.dtd">
<svg version="1.0" xmlns="http://www.w3.org/2000/svg"
 width="500.000000pt" height="500.000000pt" viewBox="0 0 500.000000 500.000000"
 preserveAspectRatio="xMidYMid meet">
<metadata>
Created by potrace 1.14, written by Peter Selinger 2001-2017
</metadata>
<g transform="translate(0.000000,500.000000) scale(0.100000,-0.100000)"
fill="#000000" stroke="none">
<path d="M2457 3824 c-1 -1 -29 -4 -62 -8 -291 -30 -591 -176 -809 -392 -200
-200 -345 -484 -383 -754 -10 -66 -10 -284 -2 -360 8 -63 42 -202 66 -263 125
-329 340 -580 643 -755 256 -147 530 -193 860 -146 161 23 379 124 560 258 63
47 212 199 266 273 30 40 54 74 54 77 0 3 11 21 24 41 80 117 167 356 183 500
10 86 9 322 0 390 -19 130 -87 331 -139 407 -10 14 -18 29 -18 32 0 22 -150
228 -205 281 -84 82 -161 148 -218 187 -92 65 -275 152 -382 182 -91 26 -110
30 -200 42 -46 6 -233 13 -238 8z m393 -170 c149 -38 320 -131 469 -257 18
-15 30 -31 27 -35 -3 -5 -30 -14 -61 -21 -34 -8 -59 -19 -65 -31 -6 -10 -10
-91 -10 -180 0 -144 -2 -161 -17 -166 -10 -3 -54 -19 -98 -36 -44 -17 -114
-43 -156 -59 l-76 -28 -49 24 c-27 13 -107 49 -179 81 -71 31 -131 57 -132 58
-3 3 -22 97 -29 146 -3 19 -7 46 -10 60 -8 43 -11 64 -18 111 l-7 47 53 38
c29 21 86 65 127 98 l73 61 -5 45 c-3 25 -9 53 -13 64 -6 17 -3 18 37 11 24
-3 87 -17 139 -31z m-890 -176 c6 -21 15 -40 19 -42 4 -3 43 -14 86 -26 44
-12 87 -23 95 -25 8 -3 44 -12 80 -21 36 -10 68 -22 72 -27 3 -6 10 -31 14
-56 4 -25 8 -48 9 -51 1 -3 5 -30 10 -60 4 -30 10 -62 11 -70 1 -8 6 -40 9
-70 l7 -55 -141 -139 -140 -140 -63 4 c-129 6 -185 8 -250 9 l-67 1 -61 123
c-33 67 -68 127 -76 134 -17 13 -27 12 -102 -11 -61 -18 -63 -14 -25 58 59
110 144 225 236 317 95 95 245 206 258 191 4 -4 12 -24 19 -44z m1343 -660
c54 -43 95 -78 123 -105 22 -22 22 -24 7 -60 -82 -197 -199 -352 -350 -464
-29 -22 -55 -39 -58 -39 -20 0 -176 190 -171 208 6 23 17 73 22 97 20 109 59
262 68 271 12 12 219 94 239 94 6 1 23 7 37 15 34 20 36 19 83 -17z m-1448
-242 c61 -3 136 -5 168 -6 l58 0 102 -157 103 -157 -39 -106 c-22 -58 -46
-124 -54 -146 l-15 -42 -81 25 c-100 31 -193 72 -253 113 -25 16 -49 30 -55
30 -5 0 -9 4 -9 9 0 5 -13 17 -29 28 -33 21 -161 138 -161 147 0 3 25 57 55
121 30 63 55 118 55 123 0 13 22 31 34 27 6 -2 61 -6 121 -9z m1006 -449 c46
-54 85 -102 86 -105 4 -9 -149 -103 -202 -125 -89 -37 -239 -54 -315 -35 -61
15 -64 16 -92 27 -16 6 -28 8 -28 4 0 -3 -2 -4 -5 -1 -3 2 14 56 36 119 23 63
44 127 48 143 6 26 11 30 46 32 62 5 156 19 255 38 36 7 70 10 76 7 6 -3 49
-50 95 -104z"/>
</g>
</svg>
